<mxfile host="app.diagrams.net" agent="Mozilla/5.0 (Windows NT 10.0; Win64; x64) AppleWebKit/537.36 (KHTML, like Gecko) Chrome/132.0.0.0 Safari/537.36 Edg/132.0.0.0" version="26.0.6">
  <diagram name="第 1 页" id="4EJkL8mSvkCc0-xvMxoJ">
    <mxGraphModel dx="934" dy="644" grid="0" gridSize="10" guides="1" tooltips="1" connect="1" arrows="1" fold="1" page="1" pageScale="1" pageWidth="827" pageHeight="1169" math="0" shadow="0">
      <root>
        <mxCell id="0" />
        <mxCell id="1" parent="0" />
        <mxCell id="Rv6llwFooytlnJuCnH-C-1" value="Device Service" style="rounded=0;whiteSpace=wrap;html=1;fillColor=#76608a;fontColor=#ffffff;strokeColor=#432D57;" vertex="1" parent="1">
          <mxGeometry x="110" y="560" width="120" height="40" as="geometry" />
        </mxCell>
        <mxCell id="Rv6llwFooytlnJuCnH-C-2" value="Device Service" style="rounded=0;whiteSpace=wrap;html=1;fillColor=#76608a;fontColor=#ffffff;strokeColor=#432D57;" vertex="1" parent="1">
          <mxGeometry x="280" y="560" width="120" height="40" as="geometry" />
        </mxCell>
        <mxCell id="Rv6llwFooytlnJuCnH-C-3" value="Device Service" style="rounded=0;whiteSpace=wrap;html=1;fillColor=#76608a;fontColor=#ffffff;strokeColor=#432D57;" vertex="1" parent="1">
          <mxGeometry x="450" y="560" width="120" height="40" as="geometry" />
        </mxCell>
        <mxCell id="Rv6llwFooytlnJuCnH-C-4" value="Device Service" style="rounded=0;whiteSpace=wrap;html=1;fillColor=#76608a;fontColor=#ffffff;strokeColor=#432D57;" vertex="1" parent="1">
          <mxGeometry x="620" y="560" width="120" height="40" as="geometry" />
        </mxCell>
        <mxCell id="Rv6llwFooytlnJuCnH-C-5" value="EdgeX框架" style="rounded=0;whiteSpace=wrap;html=1;fillColor=#76608a;fontColor=#ffffff;strokeColor=#432D57;" vertex="1" parent="1">
          <mxGeometry x="110" y="480" width="630" height="40" as="geometry" />
        </mxCell>
        <mxCell id="Rv6llwFooytlnJuCnH-C-14" value="eKuiper规则引擎&lt;div&gt;&lt;br&gt;&lt;/div&gt;&lt;div&gt;&lt;br&gt;&lt;/div&gt;&lt;div&gt;&lt;br&gt;&lt;/div&gt;&lt;div&gt;&lt;br&gt;&lt;/div&gt;&lt;div&gt;&lt;br&gt;&lt;/div&gt;&lt;div&gt;&lt;br&gt;&lt;/div&gt;" style="rounded=0;whiteSpace=wrap;html=1;fillColor=#76608a;fontColor=#ffffff;strokeColor=#432D57;" vertex="1" parent="1">
          <mxGeometry x="560" y="320" width="180" height="120" as="geometry" />
        </mxCell>
        <mxCell id="Rv6llwFooytlnJuCnH-C-15" value="Telegraf数据收集引擎" style="rounded=0;whiteSpace=wrap;html=1;fillColor=#1ba1e2;fontColor=#ffffff;strokeColor=#006EAF;" vertex="1" parent="1">
          <mxGeometry x="110" y="320" width="400" height="40" as="geometry" />
        </mxCell>
        <mxCell id="Rv6llwFooytlnJuCnH-C-16" value="多模数据库(Influx/Mongo)" style="rounded=0;whiteSpace=wrap;html=1;fillColor=#1ba1e2;fontColor=#ffffff;strokeColor=#006EAF;" vertex="1" parent="1">
          <mxGeometry x="280" y="240" width="150" height="40" as="geometry" />
        </mxCell>
        <mxCell id="Rv6llwFooytlnJuCnH-C-17" value="Web 后端Applcation" style="rounded=0;whiteSpace=wrap;html=1;fillColor=#1ba1e2;fontColor=#ffffff;strokeColor=#006EAF;" vertex="1" parent="1">
          <mxGeometry x="470" y="240" width="270" height="40" as="geometry" />
        </mxCell>
        <mxCell id="Rv6llwFooytlnJuCnH-C-26" value="数据转换 Applcation" style="rounded=0;whiteSpace=wrap;html=1;fillColor=#76608a;fontColor=#ffffff;strokeColor=#432D57;" vertex="1" parent="1">
          <mxGeometry x="110" y="400" width="400" height="40" as="geometry" />
        </mxCell>
        <mxCell id="Rv6llwFooytlnJuCnH-C-27" value="SQL规则" style="rounded=1;whiteSpace=wrap;html=1;" vertex="1" parent="1">
          <mxGeometry x="590" y="350" width="120" height="20" as="geometry" />
        </mxCell>
        <mxCell id="Rv6llwFooytlnJuCnH-C-28" value="边缘端AI推理/决策" style="rounded=1;whiteSpace=wrap;html=1;" vertex="1" parent="1">
          <mxGeometry x="590" y="380" width="120" height="20" as="geometry" />
        </mxCell>
        <mxCell id="Rv6llwFooytlnJuCnH-C-29" value="云端AI推理/决策" style="rounded=1;whiteSpace=wrap;html=1;" vertex="1" parent="1">
          <mxGeometry x="590" y="410" width="120" height="20" as="geometry" />
        </mxCell>
        <mxCell id="Rv6llwFooytlnJuCnH-C-30" value="前端交互+UI (Web、App&lt;span style=&quot;background-color: transparent; color: light-dark(rgb(255, 255, 255), rgb(18, 18, 18));&quot;&gt;)&lt;/span&gt;" style="rounded=0;whiteSpace=wrap;html=1;fillColor=#1ba1e2;fontColor=#ffffff;strokeColor=#006EAF;" vertex="1" parent="1">
          <mxGeometry x="280" y="160" width="460" height="40" as="geometry" />
        </mxCell>
        <mxCell id="Rv6llwFooytlnJuCnH-C-37" value="" style="endArrow=classic;html=1;rounded=0;exitX=0.25;exitY=0;exitDx=0;exitDy=0;fillColor=#d5e8d4;strokeColor=#82b366;strokeWidth=3;" edge="1" parent="1">
          <mxGeometry width="50" height="50" relative="1" as="geometry">
            <mxPoint x="319.99999999999994" y="560" as="sourcePoint" />
            <mxPoint x="319.99999999999994" y="520" as="targetPoint" />
          </mxGeometry>
        </mxCell>
        <mxCell id="Rv6llwFooytlnJuCnH-C-41" value="" style="endArrow=classic;html=1;rounded=0;exitX=0.25;exitY=0;exitDx=0;exitDy=0;entryX=0.057;entryY=1.009;entryDx=0;entryDy=0;entryPerimeter=0;fillColor=#d5e8d4;strokeColor=#82b366;strokeWidth=3;" edge="1" parent="1">
          <mxGeometry width="50" height="50" relative="1" as="geometry">
            <mxPoint x="309.40999999999997" y="480" as="sourcePoint" />
            <mxPoint x="310.40999999999997" y="440" as="targetPoint" />
          </mxGeometry>
        </mxCell>
        <mxCell id="Rv6llwFooytlnJuCnH-C-42" value="" style="endArrow=classic;html=1;rounded=0;exitX=0.25;exitY=0;exitDx=0;exitDy=0;entryX=0.057;entryY=1.009;entryDx=0;entryDy=0;entryPerimeter=0;fillColor=#d5e8d4;strokeColor=#82b366;strokeWidth=3;" edge="1" parent="1">
          <mxGeometry width="50" height="50" relative="1" as="geometry">
            <mxPoint x="184.41" y="320" as="sourcePoint" />
            <mxPoint x="185.41" y="280" as="targetPoint" />
          </mxGeometry>
        </mxCell>
        <mxCell id="Rv6llwFooytlnJuCnH-C-44" value="录制回放Application" style="rounded=0;whiteSpace=wrap;html=1;fillColor=#1ba1e2;fontColor=#ffffff;strokeColor=#006EAF;" vertex="1" parent="1">
          <mxGeometry x="110" y="240" width="140" height="40" as="geometry" />
        </mxCell>
        <mxCell id="Rv6llwFooytlnJuCnH-C-45" value="仿真平台" style="rounded=0;whiteSpace=wrap;html=1;fillColor=#1ba1e2;fontColor=#ffffff;strokeColor=#006EAF;" vertex="1" parent="1">
          <mxGeometry x="110" y="160" width="140" height="40" as="geometry" />
        </mxCell>
        <mxCell id="Rv6llwFooytlnJuCnH-C-46" value="" style="endArrow=classic;html=1;rounded=0;exitX=0.25;exitY=0;exitDx=0;exitDy=0;entryX=0.057;entryY=1.009;entryDx=0;entryDy=0;entryPerimeter=0;fillColor=#d5e8d4;strokeColor=#82b366;strokeWidth=3;" edge="1" parent="1">
          <mxGeometry width="50" height="50" relative="1" as="geometry">
            <mxPoint x="309.40999999999997" y="400" as="sourcePoint" />
            <mxPoint x="310.40999999999997" y="360" as="targetPoint" />
          </mxGeometry>
        </mxCell>
        <mxCell id="Rv6llwFooytlnJuCnH-C-47" value="" style="endArrow=classic;html=1;rounded=0;exitX=0.25;exitY=0;exitDx=0;exitDy=0;entryX=0.057;entryY=1.009;entryDx=0;entryDy=0;entryPerimeter=0;fillColor=#d5e8d4;strokeColor=#82b366;strokeWidth=3;" edge="1" parent="1">
          <mxGeometry width="50" height="50" relative="1" as="geometry">
            <mxPoint x="184.41" y="240" as="sourcePoint" />
            <mxPoint x="185.41" y="200" as="targetPoint" />
          </mxGeometry>
        </mxCell>
        <mxCell id="Rv6llwFooytlnJuCnH-C-48" value="" style="endArrow=classic;html=1;rounded=0;exitX=0.25;exitY=0;exitDx=0;exitDy=0;entryX=0.057;entryY=1.009;entryDx=0;entryDy=0;entryPerimeter=0;fillColor=#d5e8d4;strokeColor=#82b366;strokeWidth=3;" edge="1" parent="1">
          <mxGeometry width="50" height="50" relative="1" as="geometry">
            <mxPoint x="359.40999999999997" y="320" as="sourcePoint" />
            <mxPoint x="360.40999999999997" y="280" as="targetPoint" />
          </mxGeometry>
        </mxCell>
        <mxCell id="Rv6llwFooytlnJuCnH-C-49" value="" style="endArrow=classic;html=1;rounded=0;exitX=0.25;exitY=0;exitDx=0;exitDy=0;entryX=0.057;entryY=1.009;entryDx=0;entryDy=0;entryPerimeter=0;fillColor=#d5e8d4;strokeColor=#82b366;strokeWidth=3;" edge="1" parent="1">
          <mxGeometry width="50" height="50" relative="1" as="geometry">
            <mxPoint x="490" y="320" as="sourcePoint" />
            <mxPoint x="491" y="280" as="targetPoint" />
          </mxGeometry>
        </mxCell>
        <mxCell id="Rv6llwFooytlnJuCnH-C-50" value="" style="endArrow=classic;html=1;rounded=0;exitX=0.25;exitY=0;exitDx=0;exitDy=0;entryX=0.057;entryY=1.009;entryDx=0;entryDy=0;entryPerimeter=0;fillColor=#d5e8d4;strokeColor=#82b366;strokeWidth=3;" edge="1" parent="1">
          <mxGeometry width="50" height="50" relative="1" as="geometry">
            <mxPoint x="560" y="240" as="sourcePoint" />
            <mxPoint x="561" y="200" as="targetPoint" />
          </mxGeometry>
        </mxCell>
        <mxCell id="Rv6llwFooytlnJuCnH-C-51" value="" style="endArrow=classic;html=1;rounded=0;exitX=0.25;exitY=0;exitDx=0;exitDy=0;fillColor=#d5e8d4;strokeColor=#82b366;strokeWidth=3;" edge="1" parent="1">
          <mxGeometry width="50" height="50" relative="1" as="geometry">
            <mxPoint x="150" y="560" as="sourcePoint" />
            <mxPoint x="150" y="520" as="targetPoint" />
          </mxGeometry>
        </mxCell>
        <mxCell id="Rv6llwFooytlnJuCnH-C-52" value="" style="endArrow=classic;html=1;rounded=0;exitX=0.25;exitY=0;exitDx=0;exitDy=0;fillColor=#d5e8d4;strokeColor=#82b366;strokeWidth=3;" edge="1" parent="1">
          <mxGeometry width="50" height="50" relative="1" as="geometry">
            <mxPoint x="489.99999999999994" y="560" as="sourcePoint" />
            <mxPoint x="489.99999999999994" y="520" as="targetPoint" />
          </mxGeometry>
        </mxCell>
        <mxCell id="Rv6llwFooytlnJuCnH-C-53" value="" style="endArrow=classic;html=1;rounded=0;exitX=0.25;exitY=0;exitDx=0;exitDy=0;fillColor=#d5e8d4;strokeColor=#82b366;strokeWidth=3;" edge="1" parent="1">
          <mxGeometry width="50" height="50" relative="1" as="geometry">
            <mxPoint x="660" y="560" as="sourcePoint" />
            <mxPoint x="660" y="520" as="targetPoint" />
          </mxGeometry>
        </mxCell>
        <mxCell id="Rv6llwFooytlnJuCnH-C-54" value="" style="endArrow=classic;html=1;rounded=0;exitX=1;exitY=0.5;exitDx=0;exitDy=0;fillColor=#ffe6cc;strokeColor=#d79b00;strokeWidth=3;" edge="1" parent="1" source="Rv6llwFooytlnJuCnH-C-16" target="Rv6llwFooytlnJuCnH-C-17">
          <mxGeometry width="50" height="50" relative="1" as="geometry">
            <mxPoint x="500" y="330" as="sourcePoint" />
            <mxPoint x="501" y="290" as="targetPoint" />
          </mxGeometry>
        </mxCell>
        <mxCell id="Rv6llwFooytlnJuCnH-C-55" value="" style="endArrow=classic;html=1;rounded=0;exitX=0.25;exitY=1;exitDx=0;exitDy=0;fillColor=#e51400;strokeColor=#B20000;strokeWidth=3;" edge="1" parent="1" source="Rv6llwFooytlnJuCnH-C-17">
          <mxGeometry width="50" height="50" relative="1" as="geometry">
            <mxPoint x="540" y="480" as="sourcePoint" />
            <mxPoint x="538" y="480" as="targetPoint" />
          </mxGeometry>
        </mxCell>
        <mxCell id="Rv6llwFooytlnJuCnH-C-56" value="" style="endArrow=classic;html=1;rounded=0;exitX=0.25;exitY=0;exitDx=0;exitDy=0;fillColor=#d5e8d4;strokeColor=#82b366;strokeWidth=3;" edge="1" parent="1">
          <mxGeometry width="50" height="50" relative="1" as="geometry">
            <mxPoint x="620" y="480" as="sourcePoint" />
            <mxPoint x="620" y="440" as="targetPoint" />
          </mxGeometry>
        </mxCell>
        <mxCell id="Rv6llwFooytlnJuCnH-C-57" value="" style="endArrow=classic;html=1;rounded=0;fillColor=#e51400;strokeColor=#B20000;strokeWidth=3;exitX=0.783;exitY=1;exitDx=0;exitDy=0;exitPerimeter=0;" edge="1" parent="1" source="Rv6llwFooytlnJuCnH-C-30">
          <mxGeometry width="50" height="50" relative="1" as="geometry">
            <mxPoint x="638" y="190" as="sourcePoint" />
            <mxPoint x="640" y="240" as="targetPoint" />
          </mxGeometry>
        </mxCell>
        <mxCell id="Rv6llwFooytlnJuCnH-C-58" value="" style="endArrow=classic;html=1;rounded=0;fillColor=#e51400;strokeColor=#B20000;strokeWidth=3;exitX=0.783;exitY=1;exitDx=0;exitDy=0;exitPerimeter=0;" edge="1" parent="1">
          <mxGeometry width="50" height="50" relative="1" as="geometry">
            <mxPoint x="679.41" y="440" as="sourcePoint" />
            <mxPoint x="679.41" y="480" as="targetPoint" />
          </mxGeometry>
        </mxCell>
        <mxCell id="Rv6llwFooytlnJuCnH-C-59" value="" style="endArrow=classic;html=1;rounded=0;fillColor=#e51400;strokeColor=#B20000;strokeWidth=3;exitX=0.783;exitY=1;exitDx=0;exitDy=0;exitPerimeter=0;" edge="1" parent="1">
          <mxGeometry width="50" height="50" relative="1" as="geometry">
            <mxPoint x="700" y="520" as="sourcePoint" />
            <mxPoint x="700" y="560" as="targetPoint" />
          </mxGeometry>
        </mxCell>
        <mxCell id="Rv6llwFooytlnJuCnH-C-60" value="" style="endArrow=classic;html=1;rounded=0;fillColor=#e51400;strokeColor=#B20000;strokeWidth=3;exitX=0.783;exitY=1;exitDx=0;exitDy=0;exitPerimeter=0;" edge="1" parent="1">
          <mxGeometry width="50" height="50" relative="1" as="geometry">
            <mxPoint x="530" y="520" as="sourcePoint" />
            <mxPoint x="530" y="560" as="targetPoint" />
          </mxGeometry>
        </mxCell>
        <mxCell id="Rv6llwFooytlnJuCnH-C-61" value="" style="endArrow=classic;html=1;rounded=0;fillColor=#e51400;strokeColor=#B20000;strokeWidth=3;exitX=0.783;exitY=1;exitDx=0;exitDy=0;exitPerimeter=0;" edge="1" parent="1">
          <mxGeometry width="50" height="50" relative="1" as="geometry">
            <mxPoint x="360" y="520" as="sourcePoint" />
            <mxPoint x="360" y="560" as="targetPoint" />
          </mxGeometry>
        </mxCell>
        <mxCell id="Rv6llwFooytlnJuCnH-C-62" value="" style="endArrow=classic;html=1;rounded=0;fillColor=#e51400;strokeColor=#B20000;strokeWidth=3;exitX=0.783;exitY=1;exitDx=0;exitDy=0;exitPerimeter=0;" edge="1" parent="1">
          <mxGeometry width="50" height="50" relative="1" as="geometry">
            <mxPoint x="190" y="520" as="sourcePoint" />
            <mxPoint x="190" y="560" as="targetPoint" />
          </mxGeometry>
        </mxCell>
        <mxCell id="Rv6llwFooytlnJuCnH-C-63" value="" style="shape=image;verticalLabelPosition=bottom;labelBackgroundColor=none;verticalAlign=top;imageAspect=0;image=data:image/png,iVBORw0KGgoAAAANSUhEUgAAA80AAABVCAIAAAD8CZERAAAgAElEQVR4Ae1d918Tv////nF3nbTssstU9l6iDNnIkOVgyFZAnAxFZIpsEJAhG2Tv1dLS0vb65W0e73zu3UWBgozkB0hzuVzyzOtyzySvvF7/J0cBIYAQQAggBBACCAGEAEIAIYAQ0DUC/6frAlF5CAGEAEIAIYAQQAggBBACCAGEgBzxbCQECAGEAEIAIYAQQAggBBACCAHdI4B4tu4xRSUiBBACCAGEAEIAIYAQQAggBBDPRjJweQjw+fzh4eHl5eXLeyR6EkIAIYAQQAggBBACCIG/hADi2X8J+Nv3WIIgenp6bG1t3dzcysrKdnZ2bh8GqMUIAYQAQgAhgBBACNwiBBDPvkWd/XebKhaLKysrMQzDcZzFYrm4uPz48UMqlf7dWqGnIwQQAgiBW4tAfX39W1VhYWHh1mKCGo4Q0C0CiGfrFk9UmloEpFJpT0+Pvb099m+g0+kvX75UewO6gBBACCAEEAIXiYCLiwuFQsGVQmNj40U+FpWNELhFCCCefYs6+yo0dXt7u7S0lMvlUigUwLdDQ0OFQuFVqBuqA0IAIYAQuFUI3L17F8fxf5c+/ve/oaHhVuGAGosQuDgEEM++OGxRyf9DQCQSCQQC8JsgiOHh4ZCQECaTCcb1Bw8ebGxs/C83iiEEEAIIAYTAfxEgCEIoFG5vb6+urq78CWtrazs7OyKR6L8ZT/EL8exTgKUqq0gkWlpamvkT5ubm9vb2CIJQlVEuk8l2d3cXFxcXFhbW19ePjo5UZkOJl4YAQRAHBwfr6+sLf8Li4uL6+rpAIFDXg6BiBEEIBIK1tTXYlYeHh5rrjHi2ZnzQVR0gIJPJPn369OrVq+npaci2t7a2MjIyWCwWhmE0Gi08PHxtbU0HD0NFIAQuDAE4wi5rF/b39zUP2RdWU1TwTUOAx+ONjIy8fv06MjLSy8vr7p/g5+f36NGjd+/eDQwMrK6uSiSS0zYb8ezTIkbOLxKJ6uvrbW1twZ4AnU5PT0/n8XjkPCAukUjGxsaSkpKsrKxMTU39/PwaGxv39vaUc6KUy0GAx+MNDw8XFhb6+flZWFiYmppaWlr6+/sXFRUNDAzweDyVQ7dUKl1cXCwvL/f19TU3Nzc1NfX19X379u3y8rLK/KAtiGdfTp/e6qfs7e2xWCwajebm5vbx48eNjQ0gkSKRKCsri8FgYBjGYrGePHmyu7t7q5FCjb+qCBAEsb6+3tnZWVJSEhcXF65dyM7ObmxsnJiYOHHB46q2+8LrJRQKh4aGvpwUlpaWLrwqV/gBS0tLBQUFXC6XSqVyOBwnJyfnP4HL5bJYLBzH9fX1o6KiPn36NDU1dSphQzz7PN3++/dvZ2fn/2nb/Dnl393drVzm6Oiol5cX1JbEMMzQ0LCiogKtaitjdQkpy8vLJSUl1tbW5B6B/WhjY1NQULC0tKRMnWdnZ6OiogBpgfkZDEZcXNzi4qK6miOerQ4ZlK4zBFZXVw0MDIBQmpqapqWlzc3NAQk+PDzMyckBsm5mZlZZWXmGJRmdVRQVhBBQhcDm5mZdXV1CQoKlpSUcW7WJsNlsX1/f2trag4MDVQWjNPna2lpCQsKJYNbW1t5asFZWVuLi4igUCpfLTU9P//TpU1dXV/+f0NLSUlFRkZqa6unpSaPRmExmQEBAaWnpyMiIlodeEM8+j1yNjY0pUC4MwzIzMxXKFIlET58+pdPpGIa5u7s/ePAA3OXq6jo1NaWQGf28aASWl5fT09MhJ8EwjMFg6OvrQ0VWkJKQkLC+vk6uzN7eXk5ODszGZDJpNBoYu9hsdmFhITkzOY54NhkNFL8QBIRCYXV1dWBgIODTTCYzIiJidnZWJpPJ5XKhUJiUlATs/bm5uQ0ODl5IJVChCIHTIyCTydra2qKiojgczolcEGZgs9nu7u5paWk1NTU/f/7c2dmBCicq95RPX6+bcwfi2Zr7UiqVZmRk0Ol0FxeX79+/7+/vK+cHKiXv3r0LCQlh/QleXl65ubkDAwMnrm0jnq2Mp/Ypo6OjyqdI7927p1DC0tLS/fv3MQwzMDDo7u6en58PCwvDMMzU1PTjx48KmdHPC0Vgf3+/qKjI0NAQDNfm5uYZGRlVVVV1dXWVlZWpqalcLhf0KY1Gy8zMJC/8jYyMuLq6ght9fX3fv3//8eNHGxsbkBIdHa2u5ohnq0MGpesSAYlEMjk5mZWVBeSbRqORzz4uLCx4eHhgGEan0589e4a4yHmgF4vFfX19r169iouLi1IVYmNjS0pK+vv7tVzxOk9lrvW9+/v7+fn5dnZ2kEBrjjAYDFdX16dPnzY2No6NjW1vbxMEIRKJent7i4qKwsLCAgICwsPDP336pJItXWuszlx5xLM1Q9fS0sLhcIyMjIaGhpR3scn3SqXS379/19XVRUREGBoaslisu3fvpqSkfPv2TcNBScSzyRieNj4yMqI8JgQFBSmU8/v37+DgYAzD9PX1V1ZW5HJ5XFwchmFGRkbl5eUKmdHPC0Wgr6/PwcEB9JqTk1NLS8vOzg5Y8pPJZNvb201NTR4eHmBNkMViDQ8Pw/p0dnaamJiAe798+XJ0dCSTyd68eQNSEM+GQKHIpSJAdkMDTluXlpYaGxtjGEalUlNSUgDVk0gkLS0tYBJpZWXV3t5+qbW8KQ8Dh3L8/Py4XK6hoaHyQgsYDigUioGBAZfLDQkJ+fz5MzqLo7L/d3Z2UlJS2Gw2AE3zXycnp6ysrLa2tt+/f+/t7UkkEpFI1N/f/+LFC29vby6Xq6+vD0rAcZzD4bS3t2vmTCqrdCMTEc/W3K3x8fE0Gu3z58+ACmjOLJfLJRLJ2tpae3t7QkKCkZERnU63tLQER7WmpqaUpQ7x7BMh1ZBBS559eHiYkpKC4ziFQvH394+JiQFKC05OTkNDQxrKR5d0i4BQKCwpKaFSqRiGsdnspqYmZf14kUjU0NDA5XLBiB0WFgbr0NHRAdgLhmEtLS1gqbuiogLk1CXPfv78OfevhpWVla2tLS2rkJ6efnh4WFJSomX+mZmZvb09bTI7OTmhmSiUP3WRjIwMT0/Pzs5OmOHg4KCwsBDQFz09vY6ODnBpe3s7OTkZwzAKhVJSUnJTl1oJgtjZ2dk8Uzg8PFT+TAL0CILo6Ojw9fU1MjJSR6+VmSIg3JGRkbOzs7CDUAQgkJubC/XwlKEDKba2ttnZ2QMDA5ubmwKBQCqVisXiX79+5eTkuLq6mpqa6unpqby3rq5OXVfeNvwRz9bQ42KxODAwEMOw09pikkgkPB5vbGwsLy/P3NwcHJQ0Nzf38fF59erV6OjowcEBkEDEszXgf+IlLXm2XC7//v07oG44jgOlXgaDkZycrGGr4cSnowynRWB2djYgIACMyenp6Ts7O6CEw8PD0dFRuM0oEokSEhJAN9HpdLgUNTg4CNfC79y58/79+w8fPpiZmYECdcmz4+PjVX45Li0R2J7U8nERERFCofDp06da5h8bG9vZ2dEms56eXk5Ozmm7+brnl0gky8vLQ/+G2dlZsvaSQuukUmlwcDCFQtHT08vLy4NXhUJhfHw8oIPGxsYgXSaTffv2DSBva2t782b5QqHw9evXlpaWzLMGCwuL6elpCCOMCIXC/Px8AwMD7Rk2WcJxHDc3N+/t7dVywQw+9wZH1tbWHjx4QEaJHLe0tMzMzARHzSQSCfEnzM3N5eXlOTg40Ol0KpWquS8Qz4bCo3OereUERstssJ5/JbK0tOTu7q6np3c2VTqCIKRSqUgk+v79e2hoKJ1Ox3GcSqXS6XR9fX1XV9fU1FS4D06WcAzDkJ8abXpce54tk8mampqOd2vByECn0zMzM8/WrdpUDOVRicDw8DBcqK6qqhKLxSCbm5sbg8EICAiAE9ri4mK4Cfn792+QjcfjZWVlAZUSMF+C5yBpNFp6errKh8rl8lPrZ5N5NvWUQfO3B77nCtkUfiKera4vLyj96OiIx+PV19dHRkZCyYOdRaFQnJ2di4uLgT0pBa4mlUrLysr09PRYLFZxcTEk5TMzM+7u7qCQkpISUPP5+fl79+4BlZK2trZr8SHUEvODg4OMjAzwZjKZTL0zBQ6Ho3A4nSCI1dXVR48egTcfdsoZImw2u7+//yZhrmXXqMzW399PNtcFLDlYWFikpaX19/eLxWKCICQSyeHh4fT09MuXLx0dHU+FOeLZEHad82xQMthbODw8FAqFAoHg4OBAIBAIhUKRSAS0KmEFrnJkZWUFjJNwRe08tRUKhS0tLfHx8dbW1mw2m8lkAuatUnQRz9YGau15NihtZ2envb29sbFxZmYGDbbaIKxlHj6fX1lZ+UIplJeXLywsQKgHBwctLCyAwDc0NAC91vX1dZBiY2PT0tICnvjx40c4BZ2YmIDV+PXrl7+/v8IHl0KheHt7a7A9enaejeP4o9OEmJgYa2trla80TMRx3MrKytfXFyzFU6lUW1tbT09PIyMjmAfxbNjlFx0RCATz8/PPnz8/cQMd+Jrx8/NrbW3d3d2FfBrUcHx83NTUlMPhfPr0CRBxgiCePHkCijUwMAD5pVLpu3fvQEfn5ubemLm+TCb7/Pmz4Z9wbN2pu7t77EwBmK2AnS6TyRYXF8F5Gvh2nCeir68/NzcHy7/Nkc3NzfDwcCaTyeFw7OzsMjMzu7u7Ab0WCASbm5vDw8MlJSXu7u5A1e+0sNfV1SnMSG8t2jrh2fA7KpVKd3d35+fna2trU1NTfXx8rKys2Gw2nU43NTV1dHQMCwsrLCzs7u5eW1s70fHbX++U43O09+7dw3F8ZmZGh5WRSqVra2vd3d2vX782NTVVKb2IZ2sD+Gl5tjZlojxnQMDT01OlGAM75dAvx8DAgLm5OcjZ1NQEePbs7CxIsbKyampqAk9Xx7Plcvn4+Hh0dLSlpeXx6WQjIyNzc/PIyMiFhQUN1T47z6bT6RrKVb7E4/FiYmLUYQHSWSwW2L/u7OzEMMzS0nJ0dFQkEuXn58MbEc9WxlbnKTKZbG1trayszMLCAuwnAA0/Lpfr6urq4eHh6+vr7e3t6urq6OhoYmICp3csFisqKurHjx9ke1IymaylpUVfX9/Lywt+MJaWluzt7YE5P6AlQhBEXV0dIN/29vZws0bnrbvkAjc2NhITEykUSm5urk7WpeRyOUEQm5ubaWlp8L3QScTf3x/pCwLxePv27bNnz7q6uoAkHxwcLC4u/vjxo6SkxNfXV8vzkcqdwmQynZyc+vr6IDW8ZGm8ao/TCc+Wy/9xar22ttba2hoTE3Ni71CpVEdHx4KCgtHRUT6ff5X7Ii0tDSjywj1u3fYg0s8+D5464dkSiUQgECgsTp2nVrfwXvJSrMKoS56m6oRny+Xyw8PDoaGhz3/C8PAw2d6DSvDPxbMPTxM2NzejoqIUIFD4qa+v397ezufzu7u7MQyztraempra3d3NycmBORHPVtmROkw8OjqanJxMSEgAnyuwyRAeHl5YWNjR0XFsg29ra2t7e3tnZ2dpaWl0dPT9+/eJiYmurq6AIuM4fvfu3draWj6fD2vF5/MfP37MZDLz8/PBV00ikXh7ewMSHx8fD3Ie68d7eXlhGKanpzc5OQlvv74RgiDa29sNDQ25XG5fX5+uGnJ4eEiefMK345wRHMc/f/6sq0regHJ4PN709HRbW1tRUVFAQICy3pSWgNNoNC6XGxgY+Pz589HRUfRNhbKhE569tbX1/fv36OhouPNGoVBMTEzu3Lnj7u7u5+cXGBjo7e199+5dOzs7mAfHcTs7u+Li4l+/fl3Z6eXw8LCdnR2FQqmpqVEnNtPT02fe/UM8G4riGSLn5NlCoXB4eLimpqa0tLSmpmZoaOjKyuEZwLnMW54/f+7i4uKkFJydnSMiIqCbMF3x7NM27ew8m0qlFpwmZGdnn6jFiON4UFBQdnY2UEpjMBiBgYGZmZlOTk7we4Z49mn7+FT5pVLp0NBQUFAQUPA3MDCIjIysr68nL8Tu7u5WVVWRlZakUunw8HB2draTkxOgzlZWVqWlpVC+ZTLZ4OAgk8l8+PAh9LGUl5cH3GI5OTmBSu7t7aWmpgIV7fHx8VPV/GpmFovFb9++xXE8MzOTjOE5a/vlyxfgXQy+F7qKcDicc9btBtx+cHAwMTFRX1+fnZ0dEBBw4vqoOvApFIqtrW1YWNiLFy++ffu2vLx84srHDUDvVE04J88mCGJubu7p06dQ/4HFYvn7+6elpVVWVvb29o6Ojv7+/Xt5eXl6erq/vx9MmaKjox0dHYHOD5VK9fT0/PLly5W1cfTmzRvWn1BZWak8hmxtbd2/fz8rK6u7u5u8tKFlLyCerSVQKrOdh2fzeLyKigpnZ2e4Y3z37t3y8vIrK4cqEbgiiSKR6OfPn71Kob+/HyqNyOXy68ez1X1aLjod8eyLk2yCIGZmZoKDg8Gbz+VyX79+vba2prCvOjk5GRQUBE8MwPoIBIL29vZ79+6BD5ixsfHHjx/hGszCwoK7uzuXy21tbQW3jI6OAjOiNjY2IEUkEoG9CxzHh4eHFZ4LH3SNIouLi/7+/kwmU4d+v9bX10/rAFz7t5JCoczPz18jhHVb1b29vfr6+vT0dH9/f2NjY/AiaI8eyEmj0ezt7WNiYsrLyzs6OpaXl4E2tlQqha+Dbqt9fUs7G88GI4NUKh0dHY2IiGCxWGByHhQUVFlZOTExAWf4ysgQBLGxsdHV1fXs2TNbW1vQxTY2NqWlpVeT4gDTtGw229DQ8OnTp9PT0+SBsbi4GKzQOzo6ZmRkdHV1nYptI56tLCHap5yZZx8dHX38+JHs+hsMHXp6eh8/fiT3r/aVQTlPRADxbG2/ZYhnnyhMZ86wsbERExMDVrLv3r1bV1cnEAiUSxsfH/f391fm2cBLwtTUVHR0NFhttba2hsaz9/f3s7Oz2Wz2hw8fQJm7u7vA6ruFhQVIOTo6ysvLA0rbPT091/2sGEEQ/f39dDrd29v7169fykieIUUmk0VGRmr7tpw+H47jZWVlZ6jYDbhlc3MzIyPDysoKnjc4FX5UKtXGxubRo0eVlZUDAwMrKytg9Xp1dbWpqen58+exsbGpqamdnZ3k0ws3ALfzNOFsPBsoZI+Ojnp7e4PxytrauqysTIGDaqgYQRB7e3vd3d2RkZGApxoZGaWlpcGJ0JXiOgKBoL6+3sbGhslkBgQEvH37tr6+vq6u7ufPn3BBFBxGd3R0fPz4cXd3t8qhWxkQxLOVMdE+5cw8e29vDziaNTExefz4cWVlZXJyMnCWbGFhAe06a18TlFMbBBDP1vaLhni2NvJ0hjwSiaS2thZ8cszNzaurq3d3d+vr6zc3NxVK29zczM/PHxgYUEjn8/kdHR0jIyPAzSxYKHJycoKLeQsLC62trdD8jVQqBUaOoLcagiAWFha+ffvW3NwM3FYrPOJ6/dzb24uJiQFKI8rHmIRC4bdv30pKSp5rDPn5+WTXrzMzM0DZRtsX5pT5cBxPSkq6XjjrpLZSqbSzsxOsjJ4SM8zCwiIxMbGurm5iYmJzcxP4GNvY2Pj69WtycrK7uzuwmw6YEJfL7erqulI0TicAnq2QM/PspaUleMDD2dm5ublZS2ZJrqdMJltdXX327BlYWWQwGPAACTnbVYhLpdKBgYGwsDAajWZsbGzxJzg4OEB1cyi0DAbD1tY2MTFxYGBAedhRaAvi2QqAnOrnmXl2f38/mMyHhYUdW+uXSCSbm5tBQUEgsaen51TVQJnX19c/fPjwWlUYGxuD+CCeDUeJEyKIZ0Oh0W1kY2MDmLxhMpl5eXlCoXBzc9PX19fNzY2s4QRWkng8nsKJDaFQWFFRweVyKyoqCIIYHx+/e/cuWJnOzs4GVQV+E8ir1GAnnay0CvIA9x+6beCFlsbn8z9//kzWKScIorOzk8lk2tjYfPv2TeHpOzs7Xl5epqamwJAtU31gsVi5ublwR/vhw4dnU2Y44b369zKO4y9evFCo7W34eewvXYNvmn/h+c9/CwuL+Ph4oHi9u7sL6PX29nZDQ0NMTIy9vb2xsbFKNXpk1w9K1Nl4Np/PDw0NBaTEx8enr6/vREIJn6gc4fF4JSUl4JCrgYFBXV2dcp6rkAI0Xmpra9WRY7J0MhgMc3PzhISEiYkJDZM6dUUhu37a9PiZefanT5+AplNaWhrsncTERLA58+XLF22ejvJABPz9/Q3UBEtLy62tLZDz2vDsqampjr8ahEIhtCtOHlZUxpE/SCiIJ0aA/Qocxx88eLC6ugqMx7W2thobGzs6Omq+nSCI4eFhfX39pKQkoBlJEEROTg7wO21gYHAqlUHNz7pqV2Uy2cjISHBwMJvNhnyaIIja2lo9PT0qlZqYmAg3o0HlZTKZjY0NhUJhMpne3t5xGkNiYmJnZycYi2UymZWVlUpR11UihUK5GZZeTisnW1tb5PPWGvA0MTE5dtfV1ta2vb0tEonAvFEoFDY3N0dFRXE4HCaTqdmuNvJTA3tne3u7pKTE+6TQ1dUFRiTwt6CgAJBsLpfb3NxMnqjDkk8VOTo6io+PB73G5XLBAHiqEi4ts0QiqaysVJi/ubi4REREKM/AqVQqi8VKTExcXl5WWUPEs1XComXimXn2r1+/wAgTFRUFbMUcHR0BW+kYhg0ODmpZgbNlIwiC9yec7fYreJfmo+rQZsO14dnAfKzv3wvrfwKO405OTkPqA3DiDXm2np7e27dv1WUfHBz08fHBMAz4Xcdx3NnZWV3moaGhxsbGG+Z3XSwWg++Wvr7+y5cv5aTQ2dlZUFAAEra2tkpKSurr60nX/4kSBLG8vPzq1SvyqtLh4SGwMEOhUMh+1xXuvb4/CYLY3t4+dj0Dvnk4jvv6+iYkJMTFxXE4HLBcERgYqGwioL6+HsOwYwsJbW1tp2q+VCq9uBOQ2J+gp6d3qirdmMx8Pj8lJQWAoPAXOPI0NDQ8tkza1tYGJo3QJWRra2tYWBiYUircqO4n4tnnEZvDw0OgOmVgYPDq1Su4HKhQJvEnKCSSN9OUL7m4uGAYRqFQHjx4cH7urlC+Dn8uLy+npaXBU3THH6zV1VUw4b9//z6dTgeDOVn86HR6RkYGsHhDRgzx7PP0y5l59v7+Ptg9ptFo/v7+hYWFvr6+4DvCYDDObKVRZVtkMplEItnZ2fn8+fO9e/dsbGxo/wY9PT17e/v4+Pjv37/z+fxrt40M2/vs2TMGg0FXFTw8PODe+7Xh2WS/6+TX+NLiQG8Ex3Fvb2+IsnJkbW0NwzDIs/X19X/8+KGcDaTIZLLw8HAyz/bz81OXWS6XLyws3DCePTc3B3rwWFFkY2NDXdtXVlYePnyYmZkJ1RjU5QTp2dnZNBoNzFvIg7vmu67LVT6fHxAQQNaWplAoNBqNwWCw2Wxzc/PHjx8rqNzI5fKjoyMTExMcx5OTk0/bUplMdqJT1fO8iUwm8zbbz56engYfIYAhnU43NDS0tLSMj49vbm4GDk0kEgmPx1tdXW1ubo6NjT2bPvct1BsBoK2eI4DDowRBREdHAzb88OFDOLE/PDwUiURw22djY6Ojo2NwcFAoFIJE4CryzZs3MzMzcPiSSCRCoRBuN21uboL5kq2tbX9/P1hBuIIDF0EQX79+hR6kg4OD4fxBJBJ1d3c/ePDA2NhYeVPF2Ng4JycHIABuCQgIUNbwxjAM6Y1oMzifmWdLJJLm5mZle/wsFgtuimpTAc15ZDIZ8EYSHR1tYWFhbm5+//797Ozst2/ffv0TXr16lZ6e7uPjY2FhYW1tnZiYOD09ffX9pCq3miCInZ2dTVWBPGFGPFtbeoB4trKQnT8FWq2OjY3VUNr29nZ6erqDg0N3d7eGbPDS0tISGEqsrKy2t7dh+s2IgFX81NRUKysrGo1GoVA8PT1jY2PT09Pfvn07Ozurspm/fv0COtkaTI+pvBEk+vr6Ku8Oa/vyaMxnbGz85MkTDY++8ZdkMtmvX7+ioqLu3r3r6uqanJzc2NgId3U3NjYmJia+fv0aHx9vZmamEUu1F2k0mpWVFVQEuvGQwgZmZWWdR26PX5ne3l6CIFZWVgB9NDc3BxZCj46OwGZaeXn57Ozs/v7+8fm/kJAQHMfNzMwKCgrm5uY2NjaOzUv7+/vjOM5isQoLC+fn57e3t9vb2/Pz8zs6Ong8HuDTjx8/xv+EqKgouAwGW3FFIvv7+2lpaRDPe/fu9fT0rK+vQ0ohEAhaW1tDQ0MtLCyU17atra3z8/PHxsb4fP709HRGRoa9vb3Chgzi2dr09Zl5tlwu5/P5L1++dHBwMDY2ZrFYRkZG9vb2xcXF4JiHNk/XnOfw8HBgYCAlJeXYPUVERER1dTX0XKFwI0EQs7Ozb9++9fPzs7W1zcrKmpmZ0VU1FJ71d38inq32y6RwAfFsnUuqTCYDSxpsNruwsFBD+QKBoKSkhEajlZaWwpUkDfnFYjHY3DQwMLipZzuEQmFbW9vDhw/Nzc1PXIqQyWRRUVFUKtXd3V0DbhouNTQ0KC9TKbwjp/3JYrFcXV3fvXunTZ9qqNvNuCQWi9fW1vb29mQymVgsXl5eHhwcrKqqio2NPbNyPIVC4XA4Hh4eQNv+Ftr1OyfPPp78rKysyOXy5ORkBdWO1dXVpKQkMIJ5enoC46HwFaBQKD4+PrGxsSYmJuBGYPXF09MzJSUFzJfs7Oza29vBqjafzwdDlqur68jIyBUUaYIgvn37BhezQUtxHI+MjGxpaSH7QuLz+U1NTQ8fPrSysoKkHCJjb29fUFBw7JVMKBROTEw8e/bM1dUV7s8gnq1N15+HZ8vlcpFI9OvXr7dv3+bl5b1580aHnmJ5PF5NTY2Xl1doaGh9ff3+/r42zREIBJWVlf7+/p6enq2trWdbCdLmQX8rD+LZ8PU/IYJ4ts5l9PDwEIzCcIlI3SPEYvH79+8xDAsMDJyZmVGXDaYTBAGoCYPBSEtLg3GipOEAACAASURBVOk3L7K+vv7x48cTTxDy+Xx7e/vj9bL29vazgSAQCFTu857w2qi5bGho6Ovrm5ubOzIyciMXMM4G8vHRgsXFxY6OjrKysujo6PPo6piZmQH3hNXV1ZOTk/v7+7dzMnNOnv3u3bujoyM4nujr60P7/bu7u1++fLl37x5ckcVx3MLCIjo6OigoiLw1b21tnZ6eHhgYCA8R4jjO5XKfPXs2NTUFFoMlEklMTAyGYUwms7Cw8EopjRwcHGxtbc3NzaWmpoIR28DA4NhHAZx4s9ns6Ojouro66BoJrJs2NjbGx8fb2Ngos21HR8fCwsKBgQEejzcyMpKbm+vh4aGnp4d4tjZDxzl5tjaPOEMeHo9XXFzs7Oycl5e3vLx8KhmWyWTz8/OpqaleXl4q/Y+eoT6XcMvCwkJtbe1HpVBdXf3z509YAcSz1RABpWTEs6HQ6Cqyv78Pxl8ulzs5OTk7O/vu3buKiorKykoFg/kSieTjx48Yhunp6TU3N0OlQFiTo6Ojnz9/VvwJbW1tQqHw3r174ERgeHg4zHYjI7I/QUPTCIL49OmTsbExm81WgO7o6Gh3d1eD8ipYXgUKowkJCUqvxekS6HS6q6trSkpKVVXVxMTELVxeVddNfD6/s7Pz2IhyeHg4l8uFDOZ0+GIYh8MJCgrKzs7++vXr5OSkQCBYXV1ta2srLCwEPlbVVeCmpp+HZ1MolM+fPwPj+kZGRtgfeMkmjIAj26KiIuD7IzQ0tLGxcWtra3Z2tqioyN7ens1mh4eHNzU1iUSi6enpgoICBwcHAwODiIiI5uZm8mof8C0FdC1SU1OvzuSzv78/PT09ISHh/v37YG0ewzCg2pSVleXg4AA5tImJSWRkZE1NDdmV797eXnNzc2pqKpfLhTmhVLu4uOTk5PT39+/s7AwNDRUWFurKr9ZNlWfQrlPxbIIgRkZGamtrv379Ojs7q0B/t7a2urq6amtru7q64IEB8BSJRDI5OdnQ0NDU1AS9T6gDliCIY7Uoe3v7jx8/Kp8OUneXQvr29nZxcbGPj09NTQ08zKCQ50r9jI2NhdNsKNVg58rNzQ3SGMSzyeBoiiOerXP5hjzbzs5uaWmpu7s7ICDA1dU1NDRU4a2WSqXV1dXAKnZ0dDRcBIJVEolEVVVVbn9CcXExn88Hi0MUCiUsLAxmu3kRoDmqbFqE3NKNjY2AgAAKhZKfnw/TgbP6zMzMhw8f3r9/P0RNiIyM7OvrA1/9paUllWOKptfm32tmZmbx8fE1NTVDQ0Pb29sKdB/W6nZGdnd3i4uLHR0dyWdb/0VOq/+GhoYhISFFRUXfv3+fnp4GRuhbW1tzc3NDQkLs7OyYTKaRkdH3798VvrI3HvDz8GwTE5Pv37/L5fLXr1+DzRxXV1dl0RUIBH19fe/fv5+bm4Pw8vn8np6ehoaG+fl5qL58eHjY3d1dU1OzsLCgXM7q6ipQn4iJibk6p0q8vb0VRNDc3Ly3txecdevv73/x4gVk20A3/cGDB1VVVZBsyWSynZ2djo6OjIwMS0tLBbZNo9GcnZ2fPn06ODgIDFbeeJk8fwM182yhUDg/Pw9EcW9v75j4HjsG5nA45ubmwcHBjY2NYGsLGIoBitRmZmZOTk7Pnz+fn58H1dvZ2fn48WNAQIClpaW1tXVwcHBLSwuUZOUmVFdXW1lZVVdXn3P1ZG9vr6CgwMfHp7OzU4H3Kz/0r6cAV5oKLwj8CffeEc+GmJwQQTxb5zJ9cHAAxlxra+vR0VEejzc5OTk2NjY9Pa1wEgiuZ2MYxmKx3Nzc3r17R34JZTLZ5ubm2NjY+Pj42tqaVCoFBhOpVGpUVJTOa35FCjw4OGhsbAwNDe3t7VVXpb29vaysLH19fVNTU2idVyAQfPjwgcvlwo1sddKP43hNTQ3g2QRBvHnzRl1OdenGxsbPnz8fGBggn5dSV9tbmE4QxODgoLGxsToANaQzGIzg4OCysrIfP34sLi4KBILt7e22tranT5/6+vra2NgozItuoV2/8/BsLy8vsLwKfdOkpqaqE1HycATyqDPwp26ten19Hdjl9PLyuiIq2q2trcpbK/7+/pOTk3CewOPxhoaG8vLy4Io1juMcDsff37+qqgo6y5TJZNvb2319fenp6crSzmAwHB0d09PTdagrrK6nbkC6Zp69sLBw7969Z8+eFRQUhIeHczgcOLfBcdza2jo2NvbFixepqalubm7kIQL4VXj+/LnyjRiGWVtbR0VF5ebmNjY2KmA4OjpqYWFRXFwMuxtm6O/vT05Ovq8qhIaGPnv2TNnO2MbGRkpKSkBAgPLqOyz2ikSeP38OzVySB2oGg3H//n2oaI54NhkcTXHEs3Uu2WKxGLz/HA5H+dWFjyMIYmxsDJjEhj0EFudgHuUI+GLp6emRF3GVs13TFIIg5ubmEhISgHeSmpqaLaUwPz/f3NwcERGhr69Po9HgagRBEL9+/TI2NmYwGJGRkc3Nzd3qQ39/P9kR/dbWlr29PeyFEyMBAQF9fX3QqMI1RftCq83n8+Pi4k5EkpyBwWD4+/u/efNmcnJyY2NDKBTyeLyurq6MjAx3d/fj5UZ1mvSIZ5NhPDEeGhoKlveAsR0cx9++fatBGAiCWFtby8/Pr62tJa/qLS4uxsTEfP78GXJTlYVsbW25urpiGGZjYwNMmqjMdpmJbm5uyiixWKw7d+68evUKmlsGa9vj4+M5OTkWFhaQ1RkZGbm7u1dWVkLCIZPJ9vb2RkZGUlJSlCf5TCbT2to6LS1tbm5OM1aXCcIVfJZmnj09PW1gYMBkMlkslvI0CahTslgsBoMBewr2Mo7jenp6Gm7kcrnKpgWCg4M9PT3JKlUANKDAqdzR4HE4jjOZzGfPniksk4OvW0BAQEVFBfk9uoIdsb+/Pzc3N60UZmZmNjc3YYURz4YCdkIE8WwoNLqKEAQBTq8zmcz09HR1xYpEourqamUrUTY2NupuEQqFYJZ5bLpIg/1ydbdf8XSxWPzy5UtTU1PgLBes8RsrBUNDQzBcGhkZ1dbWwi0CHo8XHR0NDGnzeDypVAo0vFX+VViTk8lkQ0ND8Lma3xkfH5+RkRH0vdQsTltbWzY2NpqRBFfpdLqPj8+bN28WFxf5fD5cFt3Y2EhLS9PX16fT6cofTnLJiGeT0TgxHh8fD0ySeXt7A6N7wLg17NCFhYX4+PjY2FiwU1RXV2dpaQnM2EdGRk5PT0skkqqqKhsbGyqVymazHzx4MDs7KxQKv3z5cv/+/fr6ejKN2N/fB24iOByOsk8u+NBLi9TV1ZEXO8lw4TjOYDAsLCwqKirgwCKTyUQi0czMzJMnT+B+OuBtzs7OdXV1UONWJpMJhcKZmZm4uDhlIkij0QwNDZ88eQLVWy+tydflQSfybM1+Csldedr43bt3FxYWyEB9//6dzWarPIu/vLzs4OCg+RGenp4q94Ly8vJsbW2hHgv5idcujni2Zhn431XEsy9CuGtra4HWdURExLHXHsDqyH/lcvn+/n56evr/euLfGNmDIPmWY/o+MTEBBho7O7ubx/NEIlFeXh55kQCQAOW/JiYmjx49UrCovbi4iGEYl8sFuqcK3UpGUuES+CkWi6urq1XyOTabXVxcDLRUQTnKJcDyZTLZ7u7u2NjYwL9haGhoY2MDmHeAeq7KJdywFA3+IP+V9H/+H5+0U+fFs6+vT8uZD+LZZEhPjMfFxa2trcnlch8fH/BykSft/f39rq6u4EWgUqlAUY1cpomJiZmZmQKPNDIycnFxAXfhOF5WVgbZ5/7+fmxsLDht+fXr178r5wRBuLu7q3zNyW3EMMzExKSyslIsFpPf2cXFxeTkZOAsDOZ3dnZua2uDvFwul8tksmMd1oiICJUCTKVSc3Nzd3d3ySX/XViuyNP/Is/28PBQUA7x9/d/+PChSmSOR/vw8HAgBsqfJxzHKRRKbW2tyv7d29vz8fGpqKhQZuEqn3WVExHPhoPACRHEsy9Cjnd3d8FQbmBg4OHh4fnfkJCQIJfLAbFT7h4LCwswUg8MDPz3Pk9ra2vwVgcGBl5Etf96mceGxqampsLDw9lsNp1Or66u3lAK+/v7yuOXTCb79OkTsHpLvkoQBJ/P//nzZ1FRUXp6emZmZl1d3draGvR1R27y+vp6QkIC+dNIpVIfPHiwv7+/tbXV3d1dWlpaVFQErOqCD7BUKt3f319eXv7y5UtGRoaPjw/Z8Bm5c6E1hq2tLYX9RHIdblJ8fHzcwMDgRE6TlpYGd+ph84+Ojr58+UIGUCGO4ziVSjUwMAgKChofH4c33pLIefSzlfVG3rx5Q8bt2Cydn5+fnp4e5M0cDickJMTHx4fJZIJECoViaGj49OlTBwcHqM9DpVJNTU3z8vLIS7ZXSm8EWChSkCV1P3Ect7e3//z58/b2NpkVzc3NPXr0yMTEhDxW+Pr6dnV1QUNGcrlcIpH09/crT1TA44yNjUtKSpaXl1WOReTuuD3xU/FsBoNhbGxsZmZmbm5uYmIChVBdb2pIV7YrMDMzY2Njo2FgOTo66urqalETxsfHyQKj0IPp6elOTk5wIqpw9Sr85PP5o6Oj35RCf3//5uYm/MIinq1BqP5zCfHsixDrY6uZGvR9TU1NwfLnwMAA0LeGXcJkMl+9eiWXyw8PD1+/fg3TyREajdbU1HQR1b4iZR4cHNTV1fn7+2vpJhNMWszMzFgsVm5uLmyFWCw+NuESGhpKRg8cfCkpKfn9+7fyUDg5ORkcHAw+nziO37t37/DwsLe318XFhVyIlZXVhw8f9vf3NzY2fH19yZc0x3Ec9/Hx6erqug1Wn0UiUXNzs7u7u5mZGXmbQgEiBoMBzDnDjpPL5SsrK3fu3FHICX8yGIw7d+4kJCS0traSrciRS7jZ8fPwbE9PT4VzkMnJyQpw8Xg84F3PwMAASOzxSvDm5mZxcbGDgwOHwwkODu7v7ycIQigUFhYW2trampiYhIWFDQwMKEwj19bWTE1NMQzz8vIaHR1VeNBl/uTz+UFBQSdO/KCYgQiFQnF3d6+trV1eXoZKTTKZbHR0NCkpydramszwgoODOzs74dno8fFxLy8vhQLJP7lcbmlp6czMzHX0zq3zvtOSZ4MDqZmZmWNjY0DYFhcXCwoKwDoUGV4t48r+KIqKimxsbMjTRR02tr293dTU9Pfv3zosU7dFxcXFqXtN7Ozs4JCLeLaWAoYhnq1bAYWltbe3K2ytwi45dhY9NTUll8sFAkFNTY2zs7PRn2Bra/v48WMwlC8sLNja2sJbyBFXV1c4oYSPu2ERgiCWlpagCa0TW/f7928Mw+7cuQN17KRSaWtrq62trcrxAsdxPz+/9vZ2Bb5LEMSPHz+8vLxoNNrdu3dXV1fb29vJ31HYEVQq9eXLlyKR6MGDBzBRy4iFhUVLS4syyz+xmdcxw/b2dmNjIzCzRV7/I2Pl5+c3PT0NW0cQxOjoqMqOA+oH6enpi4uLMP8tjJyHZxsbG4PziG/evAGy7eLiolIPbXR0tKysDJ72A/tsQ0NDDQ0N5HdTIpGMjIyAU8vKfbGysgLs+sXGxpLvUs550Sk1NTUK6xpkIdQcp1Kpfn5+nz59mpubgxMJkUjU39//+PFj8qI+hmFhYWHNzc0zMzPl5eXqZJ78OCcnp7KysrGxMbLyyUWjcQXL15JnW1pakk2+gIaIxeLW1lYNy1tkwBXibDa7pKQEAkIQRExMzNOnTy+oOw4PD+/cuaPBmhasyd+KKFvOISMGx2rEs8mwaIojnn1Bory/v3///n110Pv5+QG7P2KxeHR09O3btxUVFe3t7eDFFolEhYWFKu+l0WhdXV0XVOdrWqxMJouNjaVQKKGhoaAJwKjc3bt3VWIIE7lcbmVlpcJgShBET0+Pl5dXfX39xsaGhg8znU4fGRkBeuGwTC0j9vb2CsbUryn4WlYb+CuJjY1Vt7D97t072BEikSgnJ0clkiwWq7Ky8pZMUTRgex6ejeM48FOzvLwMPqgcDgeuUal8KEEQR3+CwtWdnR3Nc37wNoHT3mlpaXA9WKGcS/h5bCchIiJC3eRNpbApJ9JotKCgoMrKyunpaci2BQJBT09PRkaGk5MTZNVMJtPX1xc4+lEuR2WKq6traWnpyMiIwuT/EsC5Io/QhmfT6fSsrCygabazs9PT09PR0QGMYAgEgtevX6s75KoSc5BoaGhYU1MDQRAKhYGBgce2ZWEXw0vkiEQiEaoJKmet5HuDgoJ6enrIKVcqnpmZ6ejoaKcqHOuPQb8WiGdrEKr/XEI8W1m+BQJBVVXV+z/hw4cPfX19IA9wRgrTNb8nMplscHBQnYtpBoORmZkJDT+T63B0dPTu3TuVar4UCiUpKYmcWTkuEolADd+/f19ZWQmPS4+MjMBGqTt5plza30oBBt20YaIEQbS1tWEYZmRkBH1Hr66uRkZGqttPIL8ALBYrPz9fwXITQRB9fX3b29sVFRXww0m+C8aPXeGIxWJLS0uYon0kLS3txOH4b+F/Qc9dW1tLSUlRCZGLiwvci9jf3wd+CpVzvnz5UjOxu6CaX7Viz8OzMQx78+YNIHPAJoy+vr6CY/BjhSh4EEIqlQ4ODubn5797925lZQVAIZVKf/z48fjx4w8fPoBTlUDbbWNjg2xs5JhYR0REANtBJSUl6o4RXwK8tbW1ZmZmyhJ1hhQqlRoUFFRRUTE9PQ1fYeDB59mzZ46Ojudh856enoWFhbeTbWvDsx0dHbu7uwmCEAgEBQUFdnZ2FhYWqamp4BTj4OCgBn0zdX1taGhIPqH7+/dvNze3zs5O2LnK8jkyMlJcXPxMTaioqCDbv1O+PSIi4iqvZ+/t7XV1dR1/WJUD+aOMeLY6iVJMRzxb+R1YX183MzNj/wmGhobQNl9zc7ODgwNIZ7PZiYmJyveSUwQCwZs3b9QxBjabHR8f39PTA89DyGSyiYmJZ8+eQT/ACr314MED+J0jP4gc393dhTXkcDgfPnwAV4uLi01NTdlstr6+/lX2JSmRSCYmJp4/f368Gn3ifEAgEDQ3N9+5cwfH8aioKLBaRhBEdXW15p0vMrA0Gi0lJWV5eZkMI4i7ublp/mQyGAyJRHJaQ9Hg6XQ6HRIU5Uff1JSNjQ13d3cy/jDe0dEBPmwzMzMqYQfq8jcVmVO165w8OyIiAgj8kydPMAyjUCghISHg9RGLxX19fQkJCTExMa2trVtbW69evXJzc6NQKEZGRlFRUe3t7VNTUyUlJcDAiL6+/rE9zfb29vn5+ZcvXz58+PA4/8bGBpgOra+vAxNJx2r6Y2Njp2qjDjOvrq4Co59Q2M4fYbFYAQEBr169mp2dhYSMz+f39fXl5uaeaPdNQwVoNJqHh0dubu5t826jDc8OCwsDVim7urqsrKwAjPr6+gMDA+BcB3CZrAFe5UsGBgbwQymXy0dGRu7cufPjxw91U3qBQBAZGalhCUZPT6+goABKhbIkJyYmwvU75avXJQXxbGVZUp2CeLayTK+urkI7nVQqFS4hNzQ0wJVLHMdDQkLmTgoDAwOxsbHqFlaBt7DY2NjCP+HRo0ceHh7qNtatrKw+f/48MzOj+Zk/f/6EPa2np1dRUQEamJeXB3QxcRwPCgpSbvVVSOHxeOXl5e7u7mw2m0KhPHz4MF99yMrKevjwoY2NDY7j7u7u8FjJ9vZ2UlISBEGbCI1GO3YwBg6HQRwIguByuZpvp9PpUqk0KytLczZ1VyMjI+Hjbk9kYmKiRlWAXjyWlpZeqgqTk5Pqvny3Bz3Q0nPybDab3dvbSxDEysoKGHA4HA5Y0p6bm4uMjGQwGBiG2draBgQEkD3D0Wg0Ozs7d3d38oYblUq1s7Pz9vYGawoWFhZfv34F6+WPHj0CDkTi4uL+ojpEY2MjOIup7k08WzqO4+CcKLAcAnnV7u7uaYcg5Qro6em5urpmZWVNTU3dEkUpbXh2ZGTk9va2XC7/+vUrVOpjs9lAnXJjYyMxMVEZTM0pLBarqKgIjiFDQ0NOTk7gmC9MJEc2NjacnJw0l+nn56eh15KSkhDPJkN6qvj/nSq3XC4HBvw1d9iFXkU8W7nLtOHZGIax2WyHk4K9vT3ZPazKrqTRaGAFWsP8GMMwJpPJ5XJPeqAD+eTf9eLZBwcH9+/fJy//A9cYcHleIaKnpwf0PhMSEsin4rq6uk7kx8odQaPR3N3d6+rqyIOjv7+/yoVVeDuLxTrOD3bGYaL2kWM3tn9RY1VZ8i8tBSj7KvyVSCSARkskEoGqAHnMpdXzyj7onDwbwzDglI4giMzMTLCkHRERcXBwIBQKx8bGEhMTweFFIMzm5uZFRUUJCQnkM8G2trZfv3599OgR2dnWnTt3Pn/+vLm5KZPJfv/+DfLb2dn9/Pnzb4G5srISGxur+UXW/p1VzgnYtouLy6tXr8BBz4ODA7jUqpz/VCksFsvBwSErK2tpaenGy782PNvPzw9YEdjb27t37x5Yw3J2dgbIj4+Pn8oAFOgLKpUaFxcH5XNyctLZ2bm7u1sd4EdHR3FxcRq+11QqtaqqSsOiQFRU1FXWGwEmKbtUBaicLZfL0Xq2tu8y4tnw7YIRLXm2thBfej74RblePFsmk01OToaFhUHAbG1tFSyIw5+BgYGRkZH5+fm/fv0iW18mCKKyspL84YelnRjBcdzQ0PDBgwcdHR1A26+3t1fd9gIo7enTp8f77Gc4eQMr8/79eyh4KIIQ0BKB8/NsExOTY18qcrmcz+cDNsxisQoKCqRSKUEQBwcHzc3NgCxGR0cvLS0dHh7yeLzGxsY7d+5QKJTk5OSFhQWJRMLj8b59++bg4MBisZKTk2dnZ8HUUSAQgDU/Go0WGxtLnr5q2UZdZevo6CAvycNXT7cRHMdZLJaNjc3r16+fPXsGB2GdPIXJZFpYWJBXE3QFzpUqRxuezWKxKioqwAnF3d3d+vr66urq9fV1QGq/fft2tr729vaG+y07Ozu+vr7fvn3TcA6Sx+P19PSoMZ/d8uvXL6gOqhLhkJAQzee7VN51aYmRkZHGxsbADJrCXwcHB/jBRTxb27cb8Wxl2UU8WxmTy0kB5njr6+ttbW2pVGpTU5NUTZD9CcrHqqRS6bt377SVflX5gDcvGo325s0bgUBgbm6uKtc/aXQ6fX9//2z2RmCZNjY2l4MtespNQuD8PBvDsLdv3wJODD2hmpqafvr0CVAWgiCA8Xjyqh5BEOvr6ysrK5CUyOVygiC2traGh4fJZDokJARMdy0tLbe2tkA2DSt8F9c7vb29ujoBCV9bDRH8T9CQ4QyXaDTaly9fyPBeHFx/sWRteDaGYZ6eniMjI6CeBEFA+fz9+3dgYOAZ4MUwzM3NjWx0MiwsTNmovwIy4Ouj7q9CZoWfnp6e2nuHULj3En6S97KU8YTuexDPVgZHdQri2cpSi3i2MiaXnLK8vPz06dMzaLBJpdI3b96olvVTpjIYjJmZme3tbQ6Ho6Bhj+O4vr5+R0eHWCwGFhtOWfb/snM4nEvG9q88TiqV5ufnax6+/weKxhidTv+7yr5/BUCFh+qEZ1MoFHCq4eDgIC4uDtBiJyen9vb2M6szAUMQGRkZYI1cX1+/s7NTofKX/BPMvckaLxrl62pdBJtsdXV15InNJQN4aY/TkmdjGObh4fHjx4+DgwORSCQWiwUCwdTUVHBw8Jm3Eezt7SF3l8vl6enpLi4uCnaodIXD7OyshYUF+XG6KllX5dy7d4/NZrNUBXNzc7SefeoxAvFsZdFEPFsZk+uSIpFIdMWzwSLH/Pz8yspKVFSUtbW1iYmJsbGxhYVFYGBgX1/f0dHR6urqqV+5/95gYmJyXbA9Tz2HhobOYG/rv1D975ehoeEt17fRCc8GPhqB07uVlRU/Pz+4Av3lyxdo10/7fpdIJAsLC7GxseAYJZPJfP369V9Zw1ao8+LiYkpKipmZmQad2v+J15WJ4ThuZWV1S0g2MPShjD08tT89PQ3tE2AYpqenFxwcnJ2dnZeX9/Dhw3PO4VksVk5ODlwab21t5XA4QLFKQZbgT4IgJGqCZpkvKCgwNzcnL5/DMq9IRCwWd3d3t6sKZHuFaD1bWVxVpyCerSzZiGcrY3JdUnTLszEMs7e37+jomJubGxoa+vTpU1VVVW9vL5zQy2Syc66T3RKe/eXLFw0aOKrHJvWpTCbz6dOn10UmL6KeuuLZGIYlJSUBeZ6YmPD19QXyzGazc3JytPdQKJVKNzY2WlpaIFk3NTXNzMyExOUiQDhVmQKBoLW1NTIy0srK6mznN9TL44VcoVAojo6O9fX1Z95bOBU+VyGz9uvZF4H4/fv3obcmoVDo4eFRWlqqjjGvra11dnbWqwl9fX1kL6pkbPl8/v3796HjZ/KlaxcfGBiAJl+AkqdcLp+dnQW9Y2Vl1dTUBBr18eNHaK14dHT0nC1F9kb+AVAmk4WHh2MYNjY2trOzA3xca0B2YWFBT08vJydHQ57LvIR49mWirdtnyWSyc+pnK4/gVCo1LCzs9evXDQ0Nzc3NAwMD4JQkqLmrq6vyLdqnIJ6tPVYwJ+LZOuTZOI6XlJQIhUKCICYnJ2NiYuBJsrt3775+/frnz58bGxvqzoQdHh7Ozs5++/YtMTERfkrt7OwqKiquoKoDn89vbm6OjY3lcrln1jGAcnhxESqV6uzs3NTUdON1ssnj/9/l2Q4ODp2dnZBYFxUVmZubq3RYIRaL09LSwKaNShnQ19evrq6GRZHb2NDQAIwGXp0pKLl62scPDw8/fPgAdxiam5tBi1Ty7JqaGmhYs7Cw8JwjA+LZ/3QT4tkq371LS4Tfj+tlb0T7N1xDToIgPn78CBHQLeY0Go3JZObk5JDXKs5s1A/UDfHsM/QR4tk65NnAWWN5eTk4rbiwsJCTk2NtbQ0Xfe/evfvo0aPy8vKWlpbe3t6RkZHRtsDsxQAAE7RJREFU0dH+/v729vavX7++ePHi3r17cLOCxWL5+/s3NjZCr5Aq2YaGV/gSLvF4vJaWlqSkJGB9/wwSeKG3UCgUNze379+/q5vbXAJEf+URf5dn02i0J0+eQLnd3Nx0cnJKTU1V7gVwSbMMBAQEKM+Rju2ihIeHp6SkwIXzv4Lz+R8qlUq7u7uhMyYzM7O+vj4NPPvnz5/QT6qBgUFDQ8N5hgXEs//pQcSzNb+BF30VssxbyLPlcnlbW5uujNcq9xSFQnnz5g15nAoODlbOpn0K4tnaYwVzIp6tW56NYZiBgcGTJ0/AscidnZ22trbExESyMxo6nW5lZXXnzh1PT08vLy9nZ2c7Ozu4RoVhGI1Gc3Fxefny5cTEBFivOs+nlPyKXVB8d3f3+/fvqampVlZWcMyEMvYXIx4eHr29vXt7ezMzM+StM4gD2cgGTLwBkb/LszEMc3V1Jbun+fTpk4GBwdevXxXWngUCQWhoqMLheLLAUCiU4uJi5bvKyso8PDz6+/sVLl27vgPGy8FbY2RklJ+fD455qNMbOTw8fPv2LXCOQaFQ3N3dVTpg1hIHxLP/AQrxbPIrd/lx+M24nTx7a2srISHhgmA3MzODOmdgUDgnp0c8+ww9hXi2znk2cLyVlZUFjz+ur6+3trYmJyefKOF0Ot3b27ukpGRkZARs9QCGfcV5NvhUbW9vd3Z2pqWlmZmZwZHzDDKpq1u8vLxGRkb29/fLysq8vb1TU1P7+/tFIhGZgmxsbOTk5AwNDSmvmJKzXbv4X+fZdDodvAIAOqFQmJGR4eTk9OPHDwUwJyYmKioqitSEqqoq8nlBuVwukUiam5vd3d3Ly8svyIyJQg0v7idBEJ8+fQKeJWg0WlJS0traGnzZ29rawLvA4XA+fPgAdwP4fH5OTg7YJWOz2Zr90muuPOLZ/+CDeLauxtyzlQO/FreTZ8tksry8PAjC2TBUd1dMTMzGxgYcBQiC0LCqoa4Qcjri2WQ0tIwjnn0RPBvDsJCQELIzFJlMtrW1NTEx0dTUlJOTEx4e7u7uzuVywcK2n5/fo0ePXr9+/ePHj4WFBahMBb+48DW54hGZTLa9vf3jx4/Hjx9D3XQtRVG32YKCgubm5gQCQWFhIVB2ZzAYtra2ycnJIyMjgLKIxeLS0lLgJzItLW1iYgJSmSuO84nV++s8G8MwS0vLtrY2uN68tbUVGhrq5eU1ODioINhCofBATTg6OiJnlkgk3d3dHh4eT5482draIl86EZMrmIEgCHd3dyD5Hh4eQ0NDoEVSqbS0tNTOzg5cotFo9vb2b9++hUoyOzs7tra2GIbhOO7j46MwFdG+pYhn/4MV4tm6HXxPWxqkmLeTZ8vl8uHhYQ8Pj9PidmJ+HMezs7PhEAxWKU68S3MGxLM146PyKuLZF8Szg4KC5ufnlT94EolEIBDs7u5ubW2t/wmbm5vb29v7+/uHh4fgK6vsNEq5nKucIpPJ+Hz+6OhoQkIC1E1XKX4XlBgaGrq0tEQQxIsXL+DxMvAsBoPB4XCSkpKkUune3h7UhmcwGJaWlmfwM3A1O+Iq8GwcxwMDA4ECFUBpcXExODjYxcWlpaWFPPhriaFIJPr69audnd2jR49WVlauO8mWy+W7u7vAPiaFQklNTYWbLfn5+UAzBL4gOI4bGRmVl5dD9SdopeDY70RbW5uWGCpkQzz7H0AQz4Zy9lciiGdLJJKUlBSIg656wdraurGxkfzO8/n8cxZuampKLvCmxpFdP9327KXx7BtAC06FPDCKPDs7GxkZqfMBRMNYER0dDTbf09PT1W2RFRYWEgRRVFSkULHW1tZTtfHKZr4KPBustubl5UHtDoIg1tbWEhISrKysysrK9vb2tAdQIBDk5uYCG5dQI0v7269mzvfv3wNJtrGxaWlpAZUcHx+3t7dXKeGWlpY/fvwAI8nh4SFQOGEwGE+ePDlbAxHP/gc3xLNVStulJcJR+NauZ8vl8rGxsXNa3FPoLxzH4+LiFLZoa2pqFLKd9qeVldXZxprrdVdzc7O1tfVpwVGX/0qZAf0rHXFpPJvcOmXOrZxCzn+t4zKZ7NevX2FhYXp6ehe6vE2lUh89erS2tiYWix89eqRO5hkMxuLi4tHRkYJmy507d66yZ8FTycAV4dmgCz5+/AhXauVy+fb2dm5urrGxsbu7e3t7+7EZ7KOjI5XL2zKZ7OjoSCgU1tbWWlhYmJubv3nz5iYZQX/8+DGAyMvLC25/PX/+XE9PT530vn79GhpygR6UY2NjFb6nWkoL4tn/AIV4tjppu5x0xLPlcjlBEDk5Oed0EkbuL7D/pTAQ+Pr6kvOcIV5cXKxQ5o38ub6+7uPjcwZ8VN7C4XD+ujfvv9tNf4Vn/90m/5Wni0Si3t7e8PBwDodzEb4k9fT0UlNTV1dX9/b24uPj1T0Cx/GysjKRSJSTk0N+I2g0Wnl5OZkO/hWUdPXQK8WzcRz/8uULGVuCIEZHR6OioszNzd3d3bOysgYHBxcXF1dXVzc2NtbX11dXVxcWFtra2tLS0uzt7S0sLB4/fnwewxq6Ala35YSEhAAh9PX1XV1dBYUnJyerk14Mw168eAGdu7m4uIDbIyMjIfk+VQ0Rz/4HLsSzyUPh5ccRzwYv7bHrjfDwcHWbsKfqFxzHAwIC4HkOUD5BEAprS6cqE1h4ULkicqpB57pkzszMPKfvTAAvjuMhISFnWwi5LlidWM/Xr187Ojra6zokJyerdMxxYn1udgaBQPD9+/eHDx9aW1vrZDwBkqyvr5+Zmbm2tra6upqQkKDB74mNjc309PTKygrZ0iKGYW5ubj9//rwx4Gvm2XNzc1Ax/bQj7dnyU6nUd+/eKThIF4lEfX19WVlZfn5+5DPBXl5ed+/e5XK5jo6OgYGBRUVFw8PDN3LDJywsDODp5+enJc/Ozc2FPNvZ2RncHhUVRZ7GaC/GiGf/gxXi2Wd7q3V1F+LZ8I2dmpo6/5IzhmFGRkZVVVWwWBCRSqWGhoZn7jUcx58/f65Q5g3+uba2lpycrGFvUUskg4ODx8bGbjBQ2jRtZWVlaGjop67D7Ozs2b582tT5uuc5ODhoaWmJiYnRiS9JAwOD58+fb25uzs3NxcbGapiC4jheXl4uFAqTkpLg2A68C5WUlNyk/tLMs3d3d4uLi2MvN8THx6vzE87j8Xp6empqal69elXyJ7x+/bqurm5kZEQoFF53addQf7ip4urqOj4+DnK+fPlS3aoThUKBSjgymczCwgIowScmJp5tHoJ49j+YI56tJWO4oGxwLL7N+tlwmBgeHj4n1aZQKGFhYcqmaiUSyXl4tpOTEzSFBmt7syM7Ozt5eXkKa3LavwUMBiMxMXFhYeFmoySXy/f39+fn539fvbCzs3O2T+ON6TLgS/LRo0fn8SWpr69fUFCwvb09PT0dGRmpYSUbwzBnZ+fR0dHx8XGF1Vxvb++JiYkbA6xcLtfMs29SS691Wzo7OwHH4HA4VVVVYECYmZnx8PCA3IM8qru7u4+OjoJsc3NzQL3EwMDg5cuXZ8MB8ex/cEM8myxklx+Hso54NniNwXmmM2/4cjic4eFh5RFB+UyS9n1Np9Obm5tvIWURi8XV1dXAiqr2cGEYxuFwioqKFFR3lDvlZqS0traGh4ffv3rh8+fPt1xjBwjY3t7et2/fgBMfON5qKc8sFqusrIzH483OzoaHhwPzC+ruBZ4FDw4OFPRf2Wx2YWHhTTpdB3i2Mph+fn4346W+Ma3g8/lggYlCocTHx8MxuaWlRcHkCI7jTk5OTU1NcNcFnqF0cHA4s8oT4tn/yNJt4Nk4jjs7O7+7euHly5dwyEY8Gw5t8/PzpaWl8KQzhOjECJ1OV7DlB8s883o2juPPnj272XuLECXliEwm6+7ufvTokb29vbGxsclJgcvlRkdHNzY2QiOsymXesJSKigrN9OtEub2gDNnZ2cobOzcMfC2bI5PJNjc329raUlJSOByOloDr6elVV1cfHx0hCGJubi4uLk7znpiHh8fw8PDAwICtrS2Zg7q5uc3OzmpZ1euS7devX8pn6Y6Hh5GRkfkrE6anp3/9+nVjjPSdQTYIgggNDQUCb2Nj09TUBObeR0dH/f39GRkZbm5uDg4OHh4ex2dyent74bj98+dPY2NjoDQSGBgINbZPW4fryrMxDNPX1w9UH7y9vTEMi4iIEAqFT58+pVKpLi4u6rIHBAQANMfGxnZ2djAMMzAwUJc5MDDQ09PzShnqWl1dhW4CqFRqUlISkIOGhoZjZ1FAvHAcj4qKEl+9sL6+Dkd8xLPJL7BAIOjt7U1OTtb+o0ij0WpqatQRC5lMBuQcAq5l5MY4LCDDe6o4QRAbGxuTk5OjWoTx8fG1tTV1vXCq516XzIhnX5eekkqlW1tb3d3dSUlJ6vRT4bBgZGTU3NwsFotB6yQSyerqanNzc1hYmErLSBQKJScnRyAQpKWlkXVLWCzWixcvbt7Gwvj4uEqlMkdHR9crE5ydnZ2cnHx9fbOzs/v6+ra3t2/btiRBEAMDA+CkDYVCCQgIGBsbgyDs7OzMzs5OTk7Ozs7u7OzAg/4rKysBAQFgrmhsbFxbWwtvOe3Lfo15NhwLNEQgz9aQh3wJ8mxyosr4leLZEolkYWEB6EbOz89vbW0BOTg4OFhaWoI6k2T/26cVlIvLL5VKYQ0XFhbgns7u7i5o1Pz8/Nra2sVV4CqXDLypjY6OZmdn29raatYk4XK5379/hxteKttVUVGhUp41JN6/f39qaurMQ4zKaqDEG4YA4tnXq0PBwDI4OBgbG6tuVDEzM2tvb1fW9JBIJNvb29+/fw8MDFS418vLa2RkpKenx9HRkTyk2NnZQTsP1wsozbWdm5tzcnIit/Qqx/X09MzMzGxtbb29vTMyMgYHBzW37iZd5fP5iYmJoHfodHpwcPDExISGj9rU1NT9+/fBHh2O4/7+/tAN0BlgQTz7P+/FNeXZZ+h4dMs1QkAmk4nFYoFAMD09XVVVFR0d7eXlZWFhAZaUcBy3t7cvKChYXl6Gc3F1rTs8PNRgKOA/LwOG4TgeERHx+/dvDeORugfdyPSZmZn4+PhQjSE6OvrHjx83svkaGoV4tgZwruwlgiBEItH4+HhYWBhZxwPDMGtr697eXg17MjKZTCgUdnV1QatnwKm1WCx+/vw5WZuCwWDk5OTcyDFEIBCUlZUpQKcwil7BnziOu7i43BhvQdq8X0DrCVrCplAoVlZW7969U7aHzePxPnz4YGdnB+eQJiYm0LuNNs9SznNqnt3W1vbyr4b9/f2DgwMtq/Dt2zeJRNLb26tl/q2tLaFQqE3m8vLy/v5+ZUBRCkLgMhEQiUSnVZuemZlhs9mavw04jjOZzJSUlJ2dnctszhV/VldXl2bcwDf13bt3N5JVaOgdxLM1gHP1LxEEMTIyEhISQqPRwLy9t7f3xEk7aBdBEM3NzXfu3PHw8JiYmOju7lZY4jU1NYW7lFcfitPWcGRkRKG9V5BYK1SJRqPFx8cr71Sctu3XKz9BEP39/dbW1uQx3MDAIDk5ubS09NOnT+Xl5QkJCQpGchgMxvkX/k/Ns68Xsqi2CAGEgAICBEEsLCx4eHgYGBjAKTsYiHEc19PTMzEx8fPz6+npUbgR/fz586e5uTl5mFb4gOE4bmpq2tDQcNuwqqmpsbOzs7p64dWrVzdPLfiCpEskEnV3d2dkZPT09Jx2oigQCKampgQCQX5+PnkxG8Ow/Pz8C6rwVShWJpM1NDRoHhYURom/+5NGo4WEhGxubl4F9C65DjKZrL+/39vbm8FgaBjGQQcxGAw7Ozt1xshPVXPEs08FF8qMELghCBwcHDQ0NERFRXmRgp+fX35+fl9fn4b94hvS/jM1QyqVdnZ2Ojs7KzAJMC5TqVQ7O7va2lqE3pnQRTddewR+/PihsLhrbGx8ZisN1wUOkUj0+fPnu3fvko9+/l0yre7phoaGoaGh8ATXdUFYt/WcnZ1NT0+3s7PT09NTZttgsYnL5aampi4vL592wqmyqohnq4QFJSIEEAIIARUIgM3HoKAghW8qjUbz8PBoaWnRcrddRdEoCSFwnRE4ODgoLCxU2CIrKyu7zm3Stu7HrnZ//vyZnp7+8GqH8vLy2+ZrTGUXAot+2dnZUVFRCj0WFRX1/Pnz/v5+zRYFVBarLhHxbHXIoHSEAEIAIaAagV+/fnl5ecG1EBzHbWxs+vr6VOdGqQiBW4DA6OiogpkRLpd7HisNtwAz1MRbgQDi2beim1EjEQIIAd0i0NHRUVpaCs5Mv3r1qr6+Xrflo9IQAtcLgdnZ2aioKLKF/o8fP+pk2/164YBqixBQQADxbAVA0E+EAEIAIYAQQAggBE6HgEQiWVxcPHZ0Hxoaymaz79y5czU9NpyuVSg3QuDcCCCefW4IUQEIAYQAQgAhgBBACMjlYrF4cXGxv79/YmICHQhGEoEQkMvliGcjMUAIIAQQAggBhABCACGAEEAI6B4BxLN1jykqESGAEEAIIAQQAggBhABCACGAeDaSAYQAQgAhgBBACCAEEAIIAYSA7hFAPFv3mKISEQIIAYQAQgAhgBBACCAEEAKIZyMZQAggBBACCAGEAEIAIYAQQAjoHgHEs3WPKSoRIYAQQAggBBACCAGEAEIAIYB4NpIBhABCACGAEEAIIAQQAggBhIDuEUA8W/eYohIRAggBhABCACGAEEAIIAQQAv8Pr5yC4SHRsUEAAAAASUVORK5CYII=;labelBorderColor=default;fontColor=#A9C4EB;imageBorder=#A9C4EB;dashed=1;" vertex="1" parent="1">
          <mxGeometry x="110" y="620" width="630" height="40" as="geometry" />
        </mxCell>
        <mxCell id="Rv6llwFooytlnJuCnH-C-64" value="数据向北" style="text;html=1;align=center;verticalAlign=middle;whiteSpace=wrap;rounded=0;" vertex="1" parent="1">
          <mxGeometry x="90" y="530" width="60" height="30" as="geometry" />
        </mxCell>
        <mxCell id="Rv6llwFooytlnJuCnH-C-65" value="控制向南" style="text;html=1;align=center;verticalAlign=middle;whiteSpace=wrap;rounded=0;" vertex="1" parent="1">
          <mxGeometry x="710" y="530" width="60" height="30" as="geometry" />
        </mxCell>
        <mxCell id="Rv6llwFooytlnJuCnH-C-66" value="决策控制向南" style="text;html=1;align=center;verticalAlign=middle;whiteSpace=wrap;rounded=0;" vertex="1" parent="1">
          <mxGeometry x="690" y="450" width="80" height="30" as="geometry" />
        </mxCell>
        <mxCell id="Rv6llwFooytlnJuCnH-C-67" value="" style="endArrow=classic;html=1;rounded=0;exitX=0.25;exitY=0;exitDx=0;exitDy=0;fillColor=#d5e8d4;strokeColor=#82b366;strokeWidth=3;" edge="1" parent="1">
          <mxGeometry width="50" height="50" relative="1" as="geometry">
            <mxPoint x="649.41" y="320" as="sourcePoint" />
            <mxPoint x="649.41" y="280" as="targetPoint" />
          </mxGeometry>
        </mxCell>
        <mxCell id="Rv6llwFooytlnJuCnH-C-68" value="通知告警向北" style="text;html=1;align=center;verticalAlign=middle;whiteSpace=wrap;rounded=0;" vertex="1" parent="1">
          <mxGeometry x="650" y="290" width="80" height="30" as="geometry" />
        </mxCell>
        <mxCell id="Rv6llwFooytlnJuCnH-C-69" value="全量数据向北" style="text;html=1;align=center;verticalAlign=middle;whiteSpace=wrap;rounded=0;" vertex="1" parent="1">
          <mxGeometry x="315" y="450" width="80" height="30" as="geometry" />
        </mxCell>
        <mxCell id="Rv6llwFooytlnJuCnH-C-70" value="格式化数据向北" style="text;html=1;align=center;verticalAlign=middle;whiteSpace=wrap;rounded=0;" vertex="1" parent="1">
          <mxGeometry x="315" y="370" width="95" height="30" as="geometry" />
        </mxCell>
        <mxCell id="Rv6llwFooytlnJuCnH-C-71" value="时序数据入库" style="text;html=1;align=center;verticalAlign=middle;whiteSpace=wrap;rounded=0;" vertex="1" parent="1">
          <mxGeometry x="262.5" y="290" width="95" height="30" as="geometry" />
        </mxCell>
        <mxCell id="Rv6llwFooytlnJuCnH-C-74" value="全量数据向北" style="text;html=1;align=center;verticalAlign=middle;whiteSpace=wrap;rounded=0;" vertex="1" parent="1">
          <mxGeometry x="100" y="290" width="80" height="30" as="geometry" />
        </mxCell>
        <mxCell id="Rv6llwFooytlnJuCnH-C-75" value="UI控制向南" style="text;html=1;align=center;verticalAlign=middle;whiteSpace=wrap;rounded=0;" vertex="1" parent="1">
          <mxGeometry x="540" y="290" width="80" height="30" as="geometry" />
        </mxCell>
        <mxCell id="Rv6llwFooytlnJuCnH-C-76" value="UI控制向南" style="text;html=1;align=center;verticalAlign=middle;whiteSpace=wrap;rounded=0;" vertex="1" parent="1">
          <mxGeometry x="640" y="210" width="80" height="30" as="geometry" />
        </mxCell>
        <mxCell id="Rv6llwFooytlnJuCnH-C-77" value="websocket数据" style="text;html=1;align=center;verticalAlign=middle;whiteSpace=wrap;rounded=0;" vertex="1" parent="1">
          <mxGeometry x="395" y="290" width="95" height="30" as="geometry" />
        </mxCell>
      </root>
    </mxGraphModel>
  </diagram>
</mxfile>
